<svg width="165" height="164" fill="none" xmlns="http://www.w3.org/2000/svg"><path d="M82.5 163.862c45.563 0 82.5-36.682 82.5-81.931C165 36.681 128.063 0 82.5 0S0 36.682 0 81.931c0 45.249 36.937 81.931 82.5 81.931z" fill="#81C245"/><path fill-rule="evenodd" clip-rule="evenodd" d="M82.5 5.534c-40.576 0-73.552 34.26-73.552 76.624 0 42.365 32.976 76.625 73.552 76.625 40.577 0 73.553-34.26 73.553-76.625S123.077 5.534 82.5 5.534zM6.528 82.157C6.528 38.55 40.497 3.114 82.5 3.114c42.004 0 75.972 35.436 75.972 79.044 0 43.609-33.968 79.044-75.972 79.044-42.003 0-75.972-35.435-75.972-79.044z" fill="#fff"/><path d="M82.5 155.441c39.153 0 70.893-32.809 70.893-73.282S121.653 8.876 82.5 8.876c-39.153 0-70.893 32.81-70.893 73.283S43.347 155.44 82.5 155.44z" fill="#2D524A"/><path fill-rule="evenodd" clip-rule="evenodd" d="M82.841 17.979c-34.137 0-61.675 28.676-61.675 64.066 0 12.972 3.641 24.92 10.013 35.048.456.683.797 1.138 1.48 1.252.683.113 1.365-.342 2.048-.911 11.834-9.558 21.28-18.662 27.652-27.538 6.6-9.217 6.714-14.679-.228-19.8-7.852-5.803-10.469-13.769-5.007-21.62 6.145-8.762 21.052-17.297 44.493-25.718.342-.113 1.366-.455 1.366-.91 0-.569-.569-.683-1.479-.91a59.886 59.886 0 00-18.663-2.959zm13.2 126.424c-.113-.227 0-.455.114-.796 10.128-13.428 16.842-24.921 22.19-36.073 7.055-14.793 4.552-28.676-8.307-36.186-8.99-5.234-19.8-9.445-29.131-16.614-7.283-5.576-3.641-13.996 10.014-21.28 4.552-2.389 10.696-4.892 18.662-7.85.569-.228.91-.228 1.479-.228.569 0 1.138.227 1.593.455 19.004 10.924 31.862 31.976 31.862 56.1 0 30.382-20.255 55.758-47.565 62.358-.57.342-.91.342-.91.114z" fill="#81C245"/><path fill-rule="evenodd" clip-rule="evenodd" d="M13.086 59.515h9.673a13.059 13.059 0 00-.683 4.21v39.6c0 1.479.227 2.845.683 4.21h-9.673a13.06 13.06 0 00.683-4.21v-39.6c0-1.48-.228-2.845-.683-4.21zm11.38-.001H29.7l5.917-.114 8.307 38.12V63.725c0-1.479-.227-2.845-.683-4.21h5.235a13.058 13.058 0 00-.683 4.21v43.81h-4.438l-5.917.113-8.307-38.12v33.796c0 1.48.228 2.845.683 4.211h-5.235a13.04 13.04 0 00.683-4.211v-39.6c0-1.479-.227-2.845-.796-4.21zm75.672 0h9.672a13.063 13.063 0 00-.682 4.21v39.6c0 1.48.227 2.845.682 4.211h-9.672c.455-1.366.683-2.731.683-4.211v-39.6a13.06 13.06 0 00-.683-4.21zm33 0h18.776l.455 9.103c-.683-.682-1.593-1.251-3.414-1.251h-6.941v11.606h7.283c.796 0 1.593-.455 2.389-1.024v10.128c-.682-.455-1.479-1.024-2.389-1.024h-7.283v12.517h6.941c1.821 0 3.186-1.024 3.869-1.593l-.569 9.559h-19.117c.455-1.366.683-2.731.683-4.211v-39.6a13.06 13.06 0 00-.683-4.21zm-84.207 0h9.673a12.975 12.975 0 00-.114 4.665l5.007 33.456 5.576-33.797c.227-1.48.227-2.39 0-4.21h5.234c-.455 1.365-1.138 2.844-1.48 4.21l-7.282 43.81h-8.762l-6.941-43.696c-.228-1.48-.456-3.073-.91-4.438zm30.724 0h13.2c3.073 0 4.893 5.007 4.893 10.014V97.52c0 5.007-1.82 10.014-4.893 10.014h-13.2c-3.072 0-4.893-5.576-4.893-10.014V69.528c0-4.324 1.82-10.014 4.893-10.014zm4.666 8.307c-.91 0-1.366 1.593-1.366 2.958v26.173c0 1.252.57 2.959 1.366 2.959h3.755c.91 0 1.366-1.48 1.366-2.96V70.78c0-1.479-.57-2.958-1.366-2.958H84.32zm33.227-8.307h12.745l.455 9.103c-.682-.682-1.593-1.251-3.413-1.251h-3.414c-1.252 0-2.39-.114-3.073.569-.569.569-.569 1.82-.569 2.617v26.172a3.4 3.4 0 00.797 2.162c.569.57 1.479.683 2.276.683h3.755c1.821 0 3.186-1.024 3.869-1.593l-.569 9.559h-12.859c-2.731 0-4.893-5.007-5.234-9.104V68.96c.227-4.21 2.503-9.445 5.234-9.445z" fill="#fff"/></svg>