<?xml version="1.0" encoding="utf-8"?><svg xmlns="http://www.w3.org/2000/svg" xmlns:xlink="http://www.w3.org/1999/xlink"><symbol viewBox="0 0 70 63" id="Adv1" xmlns="http://www.w3.org/2000/svg"><path d="M61.46 38.876a1.166 1.166 0 010 1.649l-6.148 6.145a1.167 1.167 0 01-1.65 0l-2.855-2.853a1.166 1.166 0 111.65-1.65l2.03 2.03 5.323-5.321a1.167 1.167 0 011.65 0zm-42.818 5.212H11.82a1.166 1.166 0 100 2.332h6.823a1.167 1.167 0 100-2.333zm0 6.654H11.82a1.167 1.167 0 100 2.333h6.823a1.167 1.167 0 100-2.333zM54.26 60.06H5.833c-1.93 0-3.5-1.57-3.5-3.499V5.831c0-1.93 1.57-3.499 3.5-3.499h15.138v13.173c0 2.641 2.813 4.326 5.142 3.09l4.631-2.46a1.165 1.165 0 011.095 0l4.631 2.46c2.33 1.236 5.142-.449 5.142-3.09v-8.77a1.167 1.167 0 00-2.333 0v8.77c0 .88-.937 1.443-1.714 1.03l-4.631-2.46a3.497 3.497 0 00-3.284 0l-4.632 2.46a1.166 1.166 0 01-1.714-1.03V2.332h33.28c1.929 0 3.5 1.57 3.5 3.499v17.922a1.167 1.167 0 002.333 0V5.83A5.839 5.839 0 0056.583 0H5.833A5.839 5.839 0 000 5.831v50.73a5.839 5.839 0 005.833 5.83H54.26a1.167 1.167 0 100-2.332zm14.215-17.18l1.445-3.708c.2-.51.016-1.092-.442-1.395l-3.316-2.201-1.011-3.85a1.16 1.16 0 00-1.178-.869l-3.978.168-3.081-2.52a1.167 1.167 0 00-1.464-.012l-3.12 2.473-3.974-.228a1.17 1.17 0 00-1.191.85l-1.07 3.835-3.35 2.15a1.166 1.166 0 00-.463 1.388l1.389 3.73-1.446 3.708a1.167 1.167 0 00.442 1.395l3.317 2.201 1.01 3.85c.14.53.623.893 1.178.869l3.978-.168 3.081 2.52a1.167 1.167 0 001.464.012l3.12-2.473 3.975.228a1.166 1.166 0 10.134-2.328l-4.419-.254a1.169 1.169 0 00-.792.25l-2.731 2.166-2.698-2.207a1.161 1.161 0 00-.788-.263l-3.483.147-.885-3.37a1.167 1.167 0 00-.483-.676l-2.904-1.927 1.266-3.247c.104-.267.106-.562.006-.83l-1.216-3.266 2.933-1.883a1.17 1.17 0 00.494-.668l.936-3.357 3.48.2c.287.017.568-.073.792-.25l2.732-2.166 2.698 2.207c.221.181.5.275.788.263l3.483-.147.884 3.37c.073.277.245.518.484.676l2.904 1.927-1.266 3.247a1.165 1.165 0 00-.007.83l1.224 3.285-1.508 1.014a1.166 1.166 0 101.303 1.935l2.27-1.526c.448-.301.63-.87.442-1.375l-1.388-3.73z"/></symbol><symbol viewBox="0 0 70 51" id="Adv2" xmlns="http://www.w3.org/2000/svg"><path d="M16.334 36.167c-3.861 0-7 3.14-7 7s3.139 7 7 7c3.86 0 7-3.14 7-7s-3.14-7-7-7zm0 11.666a4.671 4.671 0 01-4.667-4.666 4.671 4.671 0 014.667-4.667A4.671 4.671 0 0121 43.167a4.671 4.671 0 01-4.666 4.666zM56 36.167c-3.86 0-7 3.14-7 7s3.14 7 7 7 7-3.14 7-7-3.14-7-7-7zm0 11.666a4.671 4.671 0 01-4.667-4.666A4.671 4.671 0 0156 38.5a4.671 4.671 0 014.667 4.667A4.671 4.671 0 0156 47.833z"/><path d="M69.815 29.702l-10.5-16.333a1.167 1.167 0 00-.982-.536H45.5c-.645 0-1.166.523-1.166 1.167v29.167c0 .645.52 1.166 1.166 1.166h4.667V42h-3.5V15.167h11.03l9.97 15.51V42h-5.834v2.334h7c.646 0 1.167-.522 1.167-1.167V30.333c0-.222-.064-.443-.185-.63z"/><path d="M51.334 28v-8.166h9.333V17.5h-10.5c-.645 0-1.166.523-1.166 1.167v10.5c0 .645.52 1.166 1.166 1.166h17.5V28H51.334zM45.5 4.667H1.167C.523 4.667 0 5.189 0 5.833v37.334c0 .645.523 1.166 1.167 1.166H10.5V42H2.333V7h42v35H22.168v2.334H45.5c.645 0 1.167-.522 1.167-1.167V5.833c0-.644-.522-1.166-1.167-1.166z"/><path d="M8.167 37.334h-7v2.333h7v-2.334zm36.166 0H24.5v2.333h19.833v-2.334zm24.501 0h-4.667v2.333h4.667v-2.334zM45.5 9.333H4.666v2.334H45.5V9.333zM17.5 42h-2.334v2.334H17.5V42zm39.667 0h-2.334v2.334h2.334V42zM21 0H4.666v2.333H21V0zM2.333 0H0v2.333h2.333V0z"/></symbol><symbol viewBox="0 0 70 74" id="Adv3" xmlns="http://www.w3.org/2000/svg"><path d="M25.076 45.83h-4.321a2.444 2.444 0 01-2.441-2.44v-2.41c0-.142-.1-.265-.25-.306a18.293 18.293 0 01-4.294-1.784.295.295 0 00-.358.035l-1.72 1.72a2.424 2.424 0 01-1.727.715 2.425 2.425 0 01-1.726-.714L5.184 37.59a2.426 2.426 0 01-.715-1.726c0-.652.254-1.265.715-1.726l1.72-1.72c.092-.092.106-.236.035-.359a18.316 18.316 0 01-1.783-4.294.324.324 0 00-.307-.25H2.441A2.444 2.444 0 010 25.077v-4.321a2.444 2.444 0 012.441-2.441h2.408c.143 0 .266-.1.307-.25A18.314 18.314 0 016.94 13.77c.07-.122.056-.267-.036-.358l-1.72-1.72a2.424 2.424 0 01-.715-1.727c0-.651.254-1.265.715-1.726l3.055-3.055a2.424 2.424 0 011.726-.715c.652 0 1.266.254 1.727.715l1.72 1.72c.091.092.235.106.358.036a18.314 18.314 0 014.294-1.784.323.323 0 00.25-.307V2.441A2.444 2.444 0 0120.754 0h4.322a2.444 2.444 0 012.44 2.441v2.408c0 .143.1.266.25.306A18.329 18.329 0 0132.06 6.94c.123.07.267.056.359-.036l1.72-1.72a2.44 2.44 0 013.452 0l.323.324c1.01 1.008-.516 2.536-1.526 1.526-.199-.172-.454-.592-.722-.323l-1.72 1.72a2.46 2.46 0 01-2.96.38 16.176 16.176 0 00-3.788-1.573 2.49 2.49 0 01-1.84-2.39V2.442a.282.282 0 00-.283-.282h-4.32a.282.282 0 00-.282.282V4.85a2.49 2.49 0 01-1.842 2.39 16.17 16.17 0 00-3.787 1.573 2.46 2.46 0 01-2.96-.381l-1.72-1.72a.276.276 0 00-.199-.083.274.274 0 00-.199.083L6.71 9.766a.277.277 0 00-.082.2c0 .053.014.13.082.199l1.72 1.72a2.46 2.46 0 01.382 2.96 16.18 16.18 0 00-1.574 3.787 2.489 2.489 0 01-2.389 1.84H2.441a.283.283 0 00-.282.283v4.32c0 .157.126.283.282.283h2.408a2.49 2.49 0 012.39 1.84c.36 1.322.89 2.596 1.573 3.788a2.459 2.459 0 01-.381 2.96l-1.72 1.72a.275.275 0 00-.083.2.28.28 0 00.083.199l3.055 3.055c.11.11.29.11.4 0l1.72-1.72a2.46 2.46 0 012.96-.381 16.168 16.168 0 003.786 1.573 2.49 2.49 0 011.841 2.39v2.407c0 .156.127.283.282.283h4.32a.282.282 0 00.283-.282v-2.408a2.49 2.49 0 011.841-2.39c1.38-.375 1.945 1.708.568 2.083a.324.324 0 00-.25.307v2.407a2.444 2.444 0 01-2.441 2.441z"/><path d="M12.742 22.915c0-7.137 7.177-12.03 13.79-9.51 1.333.509.567 2.526-.769 2.017-5.22-1.99-10.863 1.885-10.863 7.493 0 4.562 3.842 8.273 8.493 8 1.423-.085 1.556 2.072.127 2.156-5.865.345-10.778-4.332-10.778-10.156z"/><path d="M59.732 47.933l-10.937-2.127v-2.703c3.072-2.095 4.734-5.062 5.096-8.395a3.104 3.104 0 002.853-3.09V29.4c2.599-1.13 2.248-4.923-.502-5.563v-.856c0-7.698-6.24-13.939-13.938-13.939h-1.169c-7.697 0-13.938 6.241-13.938 13.938v.857c-2.748.64-3.101 4.433-.501 5.563v2.219a3.104 3.104 0 002.852 3.09c.316 2.907 1.679 5.568 3.829 7.419.411.355.834.68 1.267.975v2.703l-10.936 2.127c-5.77 1.122-10.268 4.374-10.268 10.376v10.98a4.4 4.4 0 004.399 4.398H65.6c2.43 0 4.399-1.97 4.399-4.399V58.31c0-5.982-4.47-9.25-10.268-10.376zm-8.984.452c-.784 1.14-1.982 2.879-3.276 4.752-.528.764-1.474.861-1.844.64l-1.705-1.023c1.663-.982 3.964-2.669 4.663-4.79l2.162.42zm-9.028 3.11c-1.64-.825-4.908-2.864-4.917-4.791v-2.409a12.395 12.395 0 009.833 0v2.4c0 1.93-3.275 3.974-4.916 4.8zM29.356 22.981c0-4.428 2.456-8.293 6.077-10.305v1.353c0 1.427 2.158 1.43 2.158 0v-2.283c.97-.307 1.991-.49 3.05-.534v5.337c0 1.427 2.158 1.43 2.158 0v-5.337a11.71 11.71 0 013.05.534v2.283c0 1.427 2.158 1.43 2.158 0v-1.353c3.621 2.012 6.077 5.877 6.077 10.304v.78H29.356v-.78zm-1.492 2.939h27.712c1.034 0 1.033 1.563 0 1.563H27.864c-1.035 0-1.034-1.563 0-1.563zm3.774 7.695a1.08 1.08 0 00-1.079-1.056c-.18-.044-1.705.28-1.705-.94v-1.977h25.731v1.977c0 1.218-1.566.906-1.705.94a1.08 1.08 0 00-1.08 1.056c-.057 2.699-1.204 5.205-3.145 6.877-4.123 3.55-9.748 3.55-13.87 0-1.942-1.672-3.089-4.178-3.146-6.877zm3.216 14.349c.698 2.121 2.999 3.808 4.662 4.79-1.709.915-1.588 1.189-2.364 1.097a1.703 1.703 0 01-1.193-.727c-1.29-1.868-2.485-3.603-3.268-4.74l2.163-.42zM22.4 71.528h-4.562a2.24 2.24 0 01-2.24-2.24V58.31c0-3.234 1.47-5.47 4.693-7.016.13.575 2.108 5.943 2.108 13.444v6.791zm18.24 0H24.558v-6.79c0-8.128-2.052-13.361-2.253-14.248 1.26-.418.324-.096 8.076-1.656 2.228 3.237 6.386 9.278 8.837 12.762a7.768 7.768 0 011.422 4.494v5.438zm1.08-9.952c-.215-.421-.46-.83-.736-1.222a756.474 756.474 0 01-3.027-4.342c.334-.073.66-.202.965-.384l2.798-1.678 2.798 1.678c.305.182.63.31.964.384a847.306 847.306 0 01-3.026 4.342c-.276.392-.522.8-.736 1.222zm26.121 7.712a2.24 2.24 0 01-2.24 2.24H61.04v-4.072c0-1.427-2.16-1.43-2.16 0v4.072H42.8V66.09a7.77 7.77 0 011.422-4.494 2020.146 2020.146 0 008.838-12.762c7.748 1.56 6.814 1.237 8.076 1.656-.157.664-1.974 5.601-2.224 12.604-.052 1.43 2.106 1.5 2.157.077.243-6.776 1.905-11.137 2.08-11.878 3.223 1.545 4.693 3.782 4.693 7.016v10.98z"/></symbol><symbol viewBox="0 0 70 70" id="Adv4" xmlns="http://www.w3.org/2000/svg"><path d="M31.629 20.228H35a4.733 4.733 0 004.258-2.632l.118-.237-2.01-1.006-.118.238A2.5 2.5 0 0135 17.981h-3.37v2.247zm0 42.703h6.743v2.248h-6.743V62.93zm0-4.495h6.743v2.248h-6.743v-2.248zm0-4.495h6.743v2.248h-6.743V53.94z"/><path d="M67.59 49.446h-5.154l-9.071-9.071a39.289 39.289 0 0016.008-15.65L70 23.6l-.627-1.126c-5.082-9.146-13.75-15.966-23.82-18.776C43.888 1.46 41.231 0 38.233 0h-6.466c-2.998 0-5.655 1.459-7.32 3.697-10.07 2.81-18.738 9.629-23.82 18.776L0 23.6l.627 1.126c3.766 6.779 9.382 12.146 16.008 15.65l-9.07 9.071H2.41a2.25 2.25 0 00-2.247 2.248v15.733a2.25 2.25 0 002.248 2.247h11.237a2.25 2.25 0 002.248-2.247V51.694a2.25 2.25 0 00-2.248-2.248h-2.906l8.027-8.027a39.25 39.25 0 0015.107 3.494v4.533h-4.495a2.25 2.25 0 00-2.247 2.248v15.733a2.25 2.25 0 002.247 2.247H40.62a2.25 2.25 0 002.247-2.247V51.694a2.25 2.25 0 00-2.247-2.248h-4.495v-4.533a39.25 39.25 0 0015.107-3.494l8.027 8.027h-2.906a2.25 2.25 0 00-2.248 2.248v15.733a2.25 2.25 0 002.248 2.247H67.59a2.25 2.25 0 002.247-2.247V51.694a2.25 2.25 0 00-2.248-2.248zm-53.94 17.98H2.41V51.695h11.238l.002 15.733zm26.971 0h-11.24V51.695H40.62l.002 15.733zM67.41 23.565l.018.035-.02.035c-4.259 7.665-11.023 13.42-18.936 16.512 4.804-3.919 7.88-9.878 7.88-16.547 0-6.5-2.9-12.517-7.863-16.553 7.97 3.13 14.736 8.987 18.92 16.518zM27.134 17.98a2.25 2.25 0 01-2.248-2.247 2.25 2.25 0 012.248-2.248v4.495zm-4.223-6.638l.478 1.912a4.472 4.472 0 00-.75 2.479 4.5 4.5 0 004.495 4.495h.113c.325 1.595 1.34 2.926 2.706 3.72l-.326.975a12.965 12.965 0 00-9.154 11.052c-2.848-3.337-4.577-7.655-4.577-12.376a19 19 0 016.747-14.566c0 .031-.005.063-.005.095 0 .748.093 1.493.273 2.214zm19.955 2.143a2.25 2.25 0 012.248 2.248 2.25 2.25 0 01-2.248 2.247v-4.495zm-.113 6.743h.113a4.5 4.5 0 004.495-4.495c0-.916-.278-1.768-.75-2.48l.478-1.91c.18-.722.273-1.467.273-2.215 0-.032-.005-.064-.005-.096a19 19 0 016.747 14.567c0 4.721-1.73 9.039-4.577 12.376a12.967 12.967 0 00-9.154-11.052l-.326-.975c1.365-.794 2.381-2.125 2.706-3.72zm-10 4.495h4.495c.228 0 .445-.04.666-.067l.207.621L35 26.838l-3.12-1.56.206-.622c.221.027.438.067.666.067zm4.581 3.461l2.27-1.135c.5.144.982.317 1.445.527l-.96 2.261-2.755-1.653zm-6.938-1.135l2.27 1.135-2.756 1.653-.96-2.26c.464-.21.948-.384 1.446-.528zm-3.4 1.677l1.855 4.368 3.164-1.898.657 1.456-3.086 9.26a19.074 19.074 0 01-6.947-3.772v-.778c0-3.496 1.68-6.657 4.358-8.636zm7.606 2.74l-.646-1.435L35 29.405l1.044.626-.646 1.435h-.796zm3.383-.27l3.164 1.898 1.855-4.368a10.724 10.724 0 014.358 8.635v.778a19.074 19.074 0 01-6.948 3.771l-3.086-9.259.657-1.455zm2.634-12.092a3.375 3.375 0 01-3.371 3.372h-4.496a3.375 3.375 0 01-3.37-3.372v-6.906c0-.807.42-1.537 1.108-1.94a6.079 6.079 0 004.376 2.545l5.753.576v5.725zm-8.832 23.307l2.898-8.698h.628l2.9 8.698a19.04 19.04 0 01-3.213.292 19.04 19.04 0 01-3.213-.292zm-.02-40.163h6.466a6.889 6.889 0 016.675 8.55l-.21.839a4.457 4.457 0 00-1.832-.4h-1.065l-6.711-.67a3.83 3.83 0 01-3.461-3.824H29.38c0 .504.06.995.175 1.465a4.455 4.455 0 00-2.31 3.03h-.112c-.654 0-1.271.147-1.833.399l-.21-.84a6.889 6.889 0 016.676-8.549zM2.59 23.634l-.018-.035.02-.035c4.184-7.532 10.95-13.39 18.924-16.52A21.237 21.237 0 0013.648 23.6c0 6.669 3.077 12.628 7.88 16.547C13.615 37.055 6.851 31.3 2.591 23.635zm53.76 43.793V51.694h11.24l.002 15.733h-11.24z"/><path d="M4.658 62.931h6.743v2.248H4.658V62.93zm0-4.495h6.743v2.248H4.658v-2.248zm0-4.495h6.743v2.248H4.658V53.94zm56.015 7.227l-1.28-1.279-1.588 1.59 3.216 3.216 5.256-7.882-1.87-1.248-3.734 5.603z"/></symbol><symbol viewBox="0 0 70 45" id="Adv5" xmlns="http://www.w3.org/2000/svg"><path d="M34.972 0H13.605C6.085.014-.015 6.127 0 13.647c0 7.507 6.099 13.648 13.605 13.648h4.194v8.501c0 .47.284.882.725 1.052.142.057.284.085.426.085.313.015.611-.1.825-.312l8.956-9.326h6.24c7.507 0 13.605-6.156 13.605-13.648C48.576 6.156 42.478 0 34.972 0zm0 25.02h-6.739c-.298-.014-.597.1-.824.313l-7.336 7.634v-6.88c0-.626-.483-1.067-1.123-1.067h-5.345c-6.241 0-11.33-5.117-11.33-11.358 0-6.27 5.06-11.359 11.33-11.387h21.367c6.24 0 11.33 5.132 11.33 11.372 0 6.241-5.075 11.373-11.33 11.373z"/><path d="M56.395 7.392h-5.117A1.14 1.14 0 0050.14 8.53a1.14 1.14 0 001.138 1.137h5.117c6.241 0 11.302 5.06 11.302 11.302 0 6.24-5.06 11.301-11.302 11.301H51.05c-.625 0-1.123.583-1.123 1.209v6.88l-7.335-7.69a1.216 1.216 0 00-.825-.384h-6.738a11.266 11.266 0 01-6.199-1.806 1.146 1.146 0 00-1.578.341 1.106 1.106 0 00.313 1.536l.014.014a13.45 13.45 0 007.435 2.19h6.255l8.957 9.396a1.2 1.2 0 00.824.37c.142 0 .299-.029.427-.071.426-.17.725-.583.725-1.052v-8.658h4.193c7.506 0 13.605-6.07 13.605-13.562-.014-7.506-6.099-13.59-13.605-13.59zM24.224 18.097c0 .014-.014.014-.028.014a1.351 1.351 0 00-.967.37 1.29 1.29 0 00-.398.938c-.014.37.128.74.412.981.256.228.597.356.939.341.34 0 .668-.128.91-.355.27-.256.412-.611.398-.981a1.286 1.286 0 00-1.266-1.308zm3.952-8.999a3.663 3.663 0 00-1.507-1.28 5.224 5.224 0 00-2.274-.468 5.11 5.11 0 00-2.417.554c-.64.327-1.18.825-1.578 1.436a3.187 3.187 0 00-.54 1.706c0 .284.128.569.341.768.227.227.526.355.839.34.554 0 .938-.326 1.137-.994.213-.64.47-1.123.782-1.45.313-.327.782-.484 1.436-.484.497-.014.995.157 1.364.484.342.298.526.739.526 1.194 0 .242-.056.469-.17.668a2.319 2.319 0 01-.426.554 14.14 14.14 0 01-.825.754c-.355.313-.697.64-1.024.98a3.119 3.119 0 00-.838 2.247c0 .398.1.697.312.896.214.198.484.298.782.298.597 0 .939-.298 1.052-.91.071-.298.114-.497.142-.611.029-.114.086-.228.143-.341.07-.142.156-.27.27-.384a7.76 7.76 0 01.483-.483 48.33 48.33 0 001.507-1.394 4.09 4.09 0 00.725-.98c.213-.413.313-.868.299-1.323 0-.625-.185-1.25-.54-1.777z"/></symbol><symbol viewBox="0 0 14 14" id="Basket" xmlns="http://www.w3.org/2000/svg"><path d="M0 5.689l1.311 7.092c.125.7.73 1.212 1.441 1.22h7.831a1.478 1.478 0 001.44-1.22l1.312-7.092H0zm4.266 3.177a.37.37 0 11-.738 0V7.757a.37.37 0 11.738 0v1.109zm5.541 0a.37.37 0 11-.738 0V7.757a.37.37 0 11.738 0v1.109zM4.267 3.14a2.401 2.401 0 014.802 0v2.18h.738V3.14a3.14 3.14 0 10-6.28 0v2.18h.74V3.14z"/></symbol><symbol viewBox="0 0 24 30" id="BasketInfo" xmlns="http://www.w3.org/2000/svg"><path d="M23.772 24.739l-1.34-16.881a2.11 2.11 0 00-2.093-1.94h-2.647V9.84a.878.878 0 11-1.757 0V5.92H7.852v3.92a.879.879 0 11-1.757 0V5.92H3.448a2.11 2.11 0 00-2.094 1.936L.014 24.741a4.9 4.9 0 001.287 3.693A4.9 4.9 0 004.885 30h14.017a4.9 4.9 0 003.584-1.566 4.899 4.899 0 001.286-3.695zm-7.92-8.597l-4.544 4.544a.876.876 0 01-1.243 0l-2.13-2.13a.878.878 0 111.242-1.242l1.51 1.509 3.923-3.924a.88.88 0 011.242 1.243z"/><path d="M11.893 0a5.806 5.806 0 00-5.798 5.8v.118h1.757V5.8a4.046 4.046 0 014.041-4.042A4.046 4.046 0 0115.935 5.8v.12h1.757V5.8c0-3.198-2.601-5.8-5.799-5.8z"/></symbol><symbol viewBox="0 0 14 13" id="Love" xmlns="http://www.w3.org/2000/svg"><path d="M13.94 3.057C13.677 1.546 12.568.365 11.076.072c-1.545-.304-3.08.37-3.874 1.7-.06.1-.2.339-.202.335-.003.004-.142-.235-.202-.336C6.005.443 4.468-.232 2.924.071 1.432.366.323 1.547.06 3.058c-.206 1.186.134 2.307.782 3.294a16.102 16.102 0 001.733 2.226C3.897 9.975 5.448 11.114 7 12.33c1.551-1.216 3.103-2.355 4.425-3.753a16.042 16.042 0 001.733-2.226c.648-.987.988-2.108.782-3.294zM3.095 1.84a1.285 1.285 0 00-.924.432 1.341 1.341 0 00-.351 1.021.362.362 0 11-.722.06 2.09 2.09 0 01.538-1.568 2.01 2.01 0 011.45-.669.362.362 0 11.009.724z"/></symbol><symbol viewBox="0 0 20 14" id="Mail" xmlns="http://www.w3.org/2000/svg"><path d="M10.025 8.021h.004c.151 0 .3-.043.42-.123l.034-.021.022-.014.38-.315L19.98.044A.107.107 0 0019.894 0H.106A.103.103 0 00.04.024l9.514 7.841c.12.1.291.156.471.156zM0 1.063v11.123l6.815-5.505L0 1.063zm13.192 5.655L20 12.19V1.1l-6.808 5.618zm-2.165 1.786a1.575 1.575 0 01-1 .345 1.58 1.58 0 01-.999-.343l-1.56-1.288L0 13.25v.019c0 .057.05.106.107.106h19.787a.108.108 0 00.106-.106v-.018l-7.461-5.995-1.512 1.248z"/></symbol><symbol viewBox="0 0 12 14" id="Man" xmlns="http://www.w3.org/2000/svg"><path d="M5.752 6.744c.926 0 1.728-.332 2.384-.988a3.263 3.263 0 00.988-2.384c0-.926-.333-1.729-.988-2.384A3.263 3.263 0 005.752 0c-.927 0-1.729.332-2.384.988a3.263 3.263 0 00-.988 2.384c0 .926.332 1.729.988 2.384a3.263 3.263 0 002.384.988zm5.9 4.021a8.325 8.325 0 00-.114-.884 6.98 6.98 0 00-.217-.89 4.395 4.395 0 00-.366-.83 3.127 3.127 0 00-.551-.718 2.431 2.431 0 00-.792-.497A2.737 2.737 0 008.6 6.763c-.143 0-.281.058-.548.232l-.571.368a3.271 3.271 0 01-.739.325c-.3.097-.603.147-.903.147-.3 0-.604-.05-.904-.146a3.263 3.263 0 01-.738-.326l-.571-.368c-.267-.174-.405-.233-.548-.233-.364 0-.704.062-1.011.184a2.425 2.425 0 00-.792.497c-.208.2-.394.441-.552.719a4.402 4.402 0 00-.365.83c-.088.273-.16.572-.218.889a8.301 8.301 0 00-.113.884 11.75 11.75 0 00-.028.827c0 .731.232 1.323.69 1.759.453.43 1.052.649 1.78.649h6.74c.729 0 1.327-.218 1.78-.649.458-.436.69-1.028.69-1.759 0-.282-.01-.56-.028-.827z"/></symbol><symbol viewBox="0 0 30 30" id="New" xmlns="http://www.w3.org/2000/svg"><path d="M28.295 12.781c-.462-.34-1.038-.765-1.114-1.047-.082-.31.212-.986.449-1.53.407-.934.827-1.902.36-2.707-.47-.815-1.529-.935-2.55-1.05-.583-.065-1.308-.146-1.525-.364-.218-.217-.299-.943-.364-1.524-.114-1.022-.233-2.078-1.05-2.55-.71-.413-1.76-.053-2.706.36-.522.227-1.067.443-1.532.448-.281-.075-.705-.652-1.047-1.114C16.629.905 15.963 0 15 0c-.961 0-1.63.905-2.217 1.703-.342.463-.766 1.04-1.165 1.127-.352 0-.892-.234-1.414-.461-.948-.412-2.001-.769-2.705-.36-.818.472-.937 1.528-1.052 2.551-.065.583-.146 1.307-.362 1.525-.218.216-.943.298-1.525.362-1.023.115-2.08.235-2.551 1.05-.466.805-.046 1.772.36 2.707.237.544.532 1.222.448 1.531-.075.282-.65.707-1.114 1.048C.905 13.37 0 14.037 0 15c0 .963.905 1.63 1.705 2.219.462.34 1.038.765 1.114 1.047.082.31-.212.986-.449 1.53-.407.934-.827 1.902-.36 2.707.47.815 1.529.935 2.55 1.05.583.065 1.308.146 1.525.363.218.218.299.944.364 1.525.115 1.022.233 2.078 1.05 2.55.705.411 1.757.053 2.705-.36.522-.227 1.058-.457 1.531-.448.282.075.706.652 1.048 1.114C13.37 29.095 14.037 30 15 30c.961 0 1.63-.905 2.217-1.703.342-.463.766-1.04 1.165-1.129.352 0 .892.235 1.414.462.951.412 2.001.77 2.705.361.818-.472.937-1.528 1.052-2.551.065-.583.146-1.307.362-1.525.218-.218.943-.299 1.525-.364 1.023-.114 2.08-.233 2.551-1.05.466-.805.046-1.771-.36-2.706-.237-.544-.53-1.222-.448-1.53.075-.282.65-.707 1.114-1.048C29.095 16.63 30 15.963 30 15c0-.963-.905-1.63-1.705-2.219zM11.74 17.61a.652.652 0 01-1.174.391l-2.739-3.652v3.26a.652.652 0 01-1.304 0v-5.217A.652.652 0 017.696 12l2.739 3.652v-3.26a.652.652 0 011.304 0v5.217zm4.565-3.261a.652.652 0 010 1.304h-1.956v1.304h1.956a.652.652 0 010 1.305h-2.608a.652.652 0 01-.653-.652v-5.22c0-.36.293-.652.653-.652h2.608a.652.652 0 010 1.304h-1.956v1.305h1.956zm8.459-1.799l-1.304 5.218a.65.65 0 01-.608.492h-.026a.653.653 0 01-.62-.446l-.683-2.055-.685 2.057a.62.62 0 01-.644.445.652.652 0 01-.608-.493l-1.305-5.218a.653.653 0 011.266-.316l.76 3.045.596-1.788c.179-.533 1.06-.533 1.238 0l.596 1.788.76-3.045a.649.649 0 01.79-.474.651.651 0 01.477.79z"/></symbol><symbol viewBox="0 0 30 30" id="New2" xmlns="http://www.w3.org/2000/svg"><path d="M28.295 12.781c-.462-.34-1.038-.765-1.114-1.047-.082-.31.212-.986.449-1.53.407-.934.827-1.902.36-2.707-.47-.815-1.529-.935-2.55-1.05-.583-.065-1.308-.146-1.525-.364-.218-.217-.299-.943-.364-1.524-.114-1.022-.233-2.078-1.05-2.55-.71-.413-1.76-.053-2.706.36-.522.227-1.067.443-1.532.448-.281-.075-.705-.652-1.047-1.114C16.629.905 15.963 0 15 0c-.961 0-1.63.905-2.217 1.703-.342.463-.766 1.04-1.165 1.127-.352 0-.892-.234-1.414-.461-.948-.412-2.001-.769-2.705-.36-.818.472-.937 1.528-1.052 2.551-.065.583-.146 1.307-.362 1.525-.218.216-.943.298-1.525.362-1.023.115-2.08.235-2.551 1.05-.466.805-.046 1.772.36 2.707.237.544.532 1.222.448 1.531-.075.282-.65.707-1.114 1.048C.905 13.37 0 14.037 0 15c0 .963.905 1.63 1.705 2.219.462.34 1.038.765 1.114 1.047.082.31-.212.986-.449 1.53-.407.934-.827 1.902-.36 2.707.47.815 1.529.935 2.55 1.05.583.065 1.308.146 1.525.363.218.218.299.944.364 1.525.115 1.022.233 2.078 1.05 2.55.705.411 1.757.053 2.705-.36.522-.227 1.058-.457 1.531-.448.282.075.706.652 1.048 1.114C13.37 29.095 14.037 30 15 30c.961 0 1.63-.905 2.217-1.703.342-.463.766-1.04 1.165-1.129.352 0 .892.235 1.414.462.951.412 2.001.77 2.705.361.818-.472.937-1.528 1.052-2.551.065-.583.146-1.307.362-1.525.218-.218.943-.299 1.525-.364 1.023-.114 2.08-.233 2.551-1.05.466-.805.046-1.771-.36-2.706-.237-.544-.53-1.222-.448-1.53.075-.282.65-.707 1.114-1.048C29.095 16.63 30 15.963 30 15c0-.963-.905-1.63-1.705-2.219zM11.74 17.61a.652.652 0 01-1.174.391l-2.739-3.652v3.26a.652.652 0 01-1.304 0v-5.217A.652.652 0 017.696 12l2.739 3.652v-3.26a.652.652 0 011.304 0v5.217zm4.565-3.261a.652.652 0 010 1.304h-1.956v1.304h1.956a.652.652 0 010 1.305h-2.608a.652.652 0 01-.653-.652v-5.22c0-.36.293-.652.653-.652h2.608a.652.652 0 010 1.304h-1.956v1.305h1.956zm8.459-1.799l-1.304 5.218a.65.65 0 01-.608.492h-.026a.653.653 0 01-.62-.446l-.683-2.055-.685 2.057a.62.62 0 01-.644.445.652.652 0 01-.608-.493l-1.305-5.218a.653.653 0 011.266-.316l.76 3.045.596-1.788c.179-.533 1.06-.533 1.238 0l.596 1.788.76-3.045a.649.649 0 01.79-.474.651.651 0 01.477.79z"/></symbol><symbol viewBox="0 0 20 20" id="Phone" xmlns="http://www.w3.org/2000/svg"><path d="M18.598 14.372c-2.86-2.298-3.66-1.168-4.957.129-.905.906-3.197-.986-5.177-2.965-1.979-1.98-3.87-4.272-2.965-5.178 1.298-1.297 2.427-2.097.128-4.955-2.298-2.86-3.83-.665-5.086.592C-.91 3.445.464 8.851 5.806 14.194c5.343 5.342 10.748 6.716 12.198 5.266 1.257-1.257 3.453-2.789.594-5.088zM3.569 2.953l-.167.068c-.136.053-.3.112-.48.19-.086.041-.18.086-.267.14-.09.054-.179.114-.26.19-.087.07-.156.162-.235.257-.058.105-.134.212-.175.341-.06.122-.08.263-.116.401-.028.14-.032.286-.05.429-.002.288.01.565.047.8.019.24.08.442.104.583l.046.22-.119-.192c-.072-.126-.193-.288-.3-.518a5.53 5.53 0 01-.348-.81c-.039-.16-.092-.326-.12-.504-.021-.18-.055-.365-.042-.56-.006-.195.034-.392.07-.59a2.963 2.963 0 01.516-1.042c.108-.145.22-.263.326-.373.211-.208.395-.36.501-.452.061-.051.086-.08.114-.103l.037-.035.98 1.534-.062.026zm14.716 14.57a7.197 7.197 0 01-.451.514c-.11.104-.222.216-.362.321-.13.11-.29.21-.453.304a2.91 2.91 0 01-1.102.348l-.282.02-.274-.015c-.18-.002-.348-.05-.51-.077-.16-.03-.307-.09-.447-.13-.14-.038-.265-.107-.381-.153-.235-.093-.404-.2-.53-.268l-.197-.108.221.034c.14.019.344.063.58.068.12.002.242.023.377.01.133-.01.273-.003.412-.028.138-.028.282-.036.415-.086l.2-.061.186-.087c.49-.238.757-.656.912-1.005.076-.18.131-.34.172-.464l.071-.206 1.588.89-.145.178z"/></symbol><symbol viewBox="0 0 30 31" id="Sale" xmlns="http://www.w3.org/2000/svg"><path d="M28.622 15.002l1.316-3.433a.939.939 0 00-.285-1.065L26.799 8.19l-.577-3.632a.937.937 0 00-.78-.778l-3.632-.577L19.498.347a.939.939 0 00-1.063-.285L15 1.38 11.567.064a.935.935 0 00-1.063.285L8.19 3.204l-3.631.578a.94.94 0 00-.778.778l-.578 3.632-2.855 2.313a.938.938 0 00-.285 1.064l1.316 3.433-1.316 3.433a.935.935 0 00.285 1.063l2.855 2.312.578 3.631a.937.937 0 00.778.78l3.631.578 2.314 2.853a.933.933 0 001.065.285L15 28.623l3.433 1.316a.94.94 0 001.065-.287L21.81 26.8l3.632-.578a.94.94 0 00.78-.78l.577-3.631 2.854-2.312a.936.936 0 00.285-1.063l-1.316-3.433z"/><path d="M21.01 14.655a1.22 1.22 0 01-1.219-1.219 1.22 1.22 0 011.219-1.219 1.22 1.22 0 011.219 1.22 1.22 1.22 0 01-1.22 1.218zm0-1.625a.406.406 0 100 .813.406.406 0 000-.813zm2.438 5.688a1.22 1.22 0 01-1.219-1.219 1.22 1.22 0 011.219-1.218 1.22 1.22 0 011.219 1.218 1.22 1.22 0 01-1.22 1.22zm0-1.625a.408.408 0 00-.406.406c0 .224.182.407.406.407a.407.407 0 00.406-.407.408.408 0 00-.406-.406zm-3.251 1.625a.406.406 0 01-.33-.643l4.064-5.688a.406.406 0 11.661.473l-4.063 5.688a.408.408 0 01-.332.17zM6 12.067c.494-.19.975-.433 1.443-.728.468-.303.897-.68 1.287-1.131h.858v9.009H8.379v-7.332a3.243 3.243 0 01-.39.299 4.377 4.377 0 01-.494.299 6.74 6.74 0 01-.559.273c-.19.087-.377.16-.559.221L6 12.067zm9.067 6.266c.771 0 1.322-.152 1.65-.455.339-.303.508-.71.508-1.222 0-.33-.07-.607-.208-.832a1.532 1.532 0 00-.546-.533 2.21 2.21 0 00-.793-.286 4.5 4.5 0 00-.91-.091h-.312v-.988h.429c.217 0 .438-.022.663-.065a1.92 1.92 0 00.637-.234c.19-.113.347-.264.468-.455.121-.2.182-.446.182-.741 0-.243-.043-.45-.13-.624a1.217 1.217 0 00-.351-.429 1.187 1.187 0 00-.494-.234 2.12 2.12 0 00-.585-.078c-.416 0-.771.06-1.066.182a4.695 4.695 0 00-.728.377l-.468-.923c.104-.07.234-.143.39-.221a3.93 3.93 0 01.546-.234c.2-.07.412-.126.637-.169.234-.052.477-.078.728-.078.477 0 .888.06 1.235.182.347.113.633.277.858.494.225.208.394.46.507.754.113.286.169.598.169.936 0 .468-.134.871-.403 1.209a2.67 2.67 0 01-.975.754c.234.07.46.169.676.299.217.13.403.295.559.494.165.2.295.429.39.689.104.26.156.55.156.871 0 .39-.07.754-.208 1.092-.13.33-.338.615-.624.858a2.982 2.982 0 01-1.053.572c-.425.139-.927.208-1.508.208-.225 0-.46-.017-.702-.052a7.494 7.494 0 01-1.209-.286 2.827 2.827 0 01-.338-.13l.234-1.053c.147.07.39.16.728.273.347.113.767.169 1.26.169z"/></symbol><symbol viewBox="0 0 30 31" id="Sale2" xmlns="http://www.w3.org/2000/svg"><path d="M28.622 15.002l1.316-3.433a.939.939 0 00-.285-1.065L26.799 8.19l-.577-3.632a.937.937 0 00-.78-.778l-3.632-.577L19.498.347a.939.939 0 00-1.063-.285L15 1.38 11.567.064a.935.935 0 00-1.063.285L8.19 3.204l-3.631.578a.94.94 0 00-.778.778l-.578 3.632-2.855 2.313a.938.938 0 00-.285 1.064l1.316 3.433-1.316 3.433a.935.935 0 00.285 1.063l2.855 2.312.578 3.631a.937.937 0 00.778.78l3.631.578 2.314 2.853a.933.933 0 001.065.285L15 28.623l3.433 1.316a.94.94 0 001.065-.287L21.81 26.8l3.632-.578a.94.94 0 00.78-.78l.577-3.631 2.854-2.312a.936.936 0 00.285-1.063l-1.316-3.433z"/></symbol><symbol viewBox="0 0 14 14" id="Scales" xmlns="http://www.w3.org/2000/svg"><path d="M11.583 4.615l2.117-.588a.41.41 0 10-.22-.79l-2.631.73-3.439.955V.41a.41.41 0 00-.82 0v4.74L2.94 6.164.3 6.897a.41.41 0 00.219.79l1.646-.456-2.107 3.512a.41.41 0 00-.059.21A3.05 3.05 0 003.046 14a3.05 3.05 0 003.046-3.046.41.41 0 00-.058-.211L3.675 6.81l6.398-1.777-2.107 3.512a.41.41 0 00-.058.211 3.05 3.05 0 003.046 3.046 3.03 3.03 0 002.154-.892c.575-.575.892-1.34.892-2.154a.41.41 0 00-.059-.21l-2.358-3.932zm-6.625 5.929H1.135l1.911-3.186 1.912 3.186zm4.084-2.197l1.912-3.186 1.911 3.186H9.042z"/></symbol><symbol viewBox="0 0 14 14" id="Search" xmlns="http://www.w3.org/2000/svg"><path d="M13.616 11.76l-3.212-3.212a6.183 6.183 0 01-1.857 1.856l3.213 3.212a1.312 1.312 0 101.856-1.856zM10.5 5.25a5.25 5.25 0 10-10.5 0 5.25 5.25 0 0010.5 0zM5.25 9.188A3.942 3.942 0 011.313 5.25 3.942 3.942 0 015.25 1.313 3.942 3.942 0 019.188 5.25 3.942 3.942 0 015.25 9.188z"/><path d="M2.187 5.25h.875A2.19 2.19 0 015.25 3.063v-.876A3.066 3.066 0 002.187 5.25z"/></symbol><symbol viewBox="0 0 18 16" id="Sheck" xmlns="http://www.w3.org/2000/svg"><path d="M17.324.883L16.842.47a1.943 1.943 0 00-2.709.173L6.07 9.579 3.636 7.484a1.943 1.943 0 00-2.708.169L.5 8.124a1.942 1.942 0 00.14 2.744l4.461 4.084a1.943 1.943 0 002.803-.148L17.53 3.623a1.94 1.94 0 00-.206-2.74z"/></symbol><symbol viewBox="0 0 30 30" id="Top" xmlns="http://www.w3.org/2000/svg"><path d="M28.493 15l1.434-3.403a.938.938 0 00-.297-1.11l-2.941-2.235-.466-3.663a.938.938 0 00-.812-.812l-3.663-.466-2.234-2.94a.939.939 0 00-1.11-.298L15 1.507 11.597.073a.938.938 0 00-1.11.297L8.252 3.311l-3.663.466a.938.938 0 00-.812.812l-.466 3.663-2.94 2.234a.938.938 0 00-.298 1.11L1.507 15 .073 18.403a.938.938 0 00.297 1.11l2.941 2.235.466 3.663a.938.938 0 00.812.812l3.663.466 2.234 2.94c.182.24.46.37.746.37.264 0 .102.038 3.768-1.506l3.403 1.434a.938.938 0 001.11-.297l2.235-2.941 3.663-.466a.938.938 0 00.812-.812l.466-3.663 2.94-2.234a.938.938 0 00.298-1.11L28.493 15zm-21.462.938a2.346 2.346 0 01-2.343-2.344A2.346 2.346 0 017.03 11.25h1.407a.937.937 0 110 1.875H7.03a.47.47 0 000 .938 2.346 2.346 0 012.344 2.343A2.346 2.346 0 017.03 18.75H5.625a.937.937 0 110-1.875h1.406a.47.47 0 000-.938zm15.26-6.904a.938.938 0 01-1.325 0c-3.29-3.29-8.643-3.29-11.932 0a.937.937 0 11-1.326-1.326c4.02-4.02 10.563-4.02 14.584 0a.938.938 0 010 1.326zm-3.072 7.841a.937.937 0 110 1.875h-2.344a.937.937 0 01-.938-.938v-5.625a.937.937 0 111.876 0v4.688h1.406zm-7.032-.469v1.407a.937.937 0 11-1.874 0v-4.22a2.346 2.346 0 012.343-2.343A2.346 2.346 0 0115 13.594v4.219a.937.937 0 11-1.875 0v-1.407h-.938zm-4.479 4.56a.937.937 0 011.326 0c3.29 3.29 8.643 3.29 11.932 0a.937.937 0 111.326 1.326c-4.021 4.021-10.563 4.02-14.584 0a.937.937 0 010-1.326zm14.323-2.216a.937.937 0 01-.937-.938v-5.625c0-.517.42-.937.937-.937h2.344a.937.937 0 110 1.875h-1.406v.938h.468a.937.937 0 110 1.874h-.468v.938h1.406a.937.937 0 110 1.875H22.03z"/><path d="M13.125 13.594a.47.47 0 00-.938 0v.937h.938v-.937z"/><path d="M3.75 10.781h22.969v8.555H3.75V10.78z"/><path d="M7.4 11.865l1.556 2.32 1.546-2.32h1.31L9.588 15.03l2.154 3.076h-1.31l-1.476-2.232-1.486 2.232H6.152l2.153-3.076-2.223-3.164H7.4zm6.27 4.377l3.182-4.377h.923v6.24h-1.204v-4.28l-3.138 4.28h-.966v-6.24h1.204v4.377zm10.098-3.313h-1.995v5.176h-1.204V12.93h-1.996v-1.064h5.195v1.064z"/></symbol><symbol viewBox="0 0 30 30" id="Tops" xmlns="http://www.w3.org/2000/svg"><path d="M28.493 15l1.434-3.403a.938.938 0 00-.297-1.11l-2.941-2.235-.466-3.663a.938.938 0 00-.812-.812l-3.663-.466-2.234-2.94a.939.939 0 00-1.11-.298L15 1.507 11.597.073a.938.938 0 00-1.11.297L8.252 3.311l-3.663.466a.938.938 0 00-.812.812l-.466 3.663-2.94 2.234a.938.938 0 00-.298 1.11L1.507 15 .073 18.403a.938.938 0 00.297 1.11l2.941 2.235.466 3.663a.938.938 0 00.812.812l3.663.466 2.234 2.94c.182.24.46.37.746.37.264 0 .102.038 3.768-1.506l3.403 1.434a.938.938 0 001.11-.297l2.235-2.941 3.663-.466a.938.938 0 00.812-.812l.466-3.663 2.94-2.234a.938.938 0 00.298-1.11L28.493 15zm-21.462.938a2.346 2.346 0 01-2.343-2.344A2.346 2.346 0 017.03 11.25h1.407a.937.937 0 110 1.875H7.03a.47.47 0 000 .938 2.346 2.346 0 012.344 2.343A2.346 2.346 0 017.03 18.75H5.625a.937.937 0 110-1.875h1.406a.47.47 0 000-.938zm15.26-6.904a.938.938 0 01-1.325 0c-3.29-3.29-8.643-3.29-11.932 0a.937.937 0 11-1.326-1.326c4.02-4.02 10.563-4.02 14.584 0a.938.938 0 010 1.326zm-3.072 7.841a.937.937 0 110 1.875h-2.344a.937.937 0 01-.938-.938v-5.625a.937.937 0 111.876 0v4.688h1.406zm-7.032-.469v1.407a.937.937 0 11-1.874 0v-4.22a2.346 2.346 0 012.343-2.343A2.346 2.346 0 0115 13.594v4.219a.937.937 0 11-1.875 0v-1.407h-.938zm-4.479 4.56a.937.937 0 011.326 0c3.29 3.29 8.643 3.29 11.932 0a.937.937 0 111.326 1.326c-4.021 4.021-10.563 4.02-14.584 0a.937.937 0 010-1.326zm14.323-2.216a.937.937 0 01-.937-.938v-5.625c0-.517.42-.937.937-.937h2.344a.937.937 0 110 1.875h-1.406v.938h.468a.937.937 0 110 1.874h-.468v.938h1.406a.937.937 0 110 1.875H22.03z"/><path d="M13.125 13.594a.47.47 0 00-.938 0v.937h.938v-.937z"/><path d="M3.75 10.781h22.969v8.555H3.75V10.78z"/><path d="M7.4 11.865l1.556 2.32 1.546-2.32h1.31L9.588 15.03l2.154 3.076h-1.31l-1.476-2.232-1.486 2.232H6.152l2.153-3.076-2.223-3.164H7.4zm6.27 4.377l3.182-4.377h.923v6.24h-1.204v-4.28l-3.138 4.28h-.966v-6.24h1.204v4.377zm10.098-3.313h-1.995v5.176h-1.204V12.93h-1.996v-1.064h5.195v1.064z"/></symbol><symbol viewBox="0 0 30 20" id="Vue" xmlns="http://www.w3.org/2000/svg"><path d="M15 4.828a4.831 4.831 0 00-4.828 4.828A4.831 4.831 0 0015 14.484a4.831 4.831 0 004.828-4.828A4.831 4.831 0 0015 4.828zm-.366 3.396c-.6 0-1.099.5-1.099 1.099h-1.598c.033-1.498 1.232-2.697 2.697-2.697v1.598z"/><path d="M29.65 8.657C28.02 6.626 22.192 0 15 0S1.981 6.626.35 8.657c-.467.566-.467 1.399 0 1.998 1.631 2.03 7.458 8.657 14.65 8.657s13.019-6.626 14.65-8.657c.466-.566.466-1.399 0-1.998zM15 16.648a6.991 6.991 0 01-6.992-6.992A6.991 6.991 0 0115 2.664a6.991 6.991 0 016.992 6.992A6.991 6.991 0 0115 16.648z"/></symbol><symbol viewBox="0 0 14 11" id="card" xmlns="http://www.w3.org/2000/svg"><path d="M11.2 0H.813A.824.824 0 000 .83v6.39c.004.443.37.798.812.794h.42v-5.21a1.54 1.54 0 011.55-1.534h9.224V.83c0-.45-.352-.83-.805-.83zm1.132 7.506a.581.581 0 00-.82.072.363.363 0 01-.566 0 .582.582 0 00-1.032.374.586.586 0 001.037.373.36.36 0 01.279-.13.35.35 0 01.28.127.581.581 0 10.823-.816z"/><path d="M13.173 1.994H2.781a.815.815 0 00-.823.809v.533H14v-.533a.816.816 0 00-.827-.809zm.823 2.067H1.958v.943h12.038V4.06zM1.958 5.73v3.447c0 .457.366.827.823.83H13.17a.834.834 0 00.826-.83V5.73H1.958zM13.05 8.68a1.312 1.312 0 01-1.82.352 1.312 1.312 0 11-.732-2.397c.26 0 .514.077.732.225a1.312 1.312 0 011.82 1.82z"/></symbol><symbol viewBox="0 0 15 12" id="message" xmlns="http://www.w3.org/2000/svg"><path d="M5.515 7.714l-.233 3.268c.333 0 .477-.143.65-.314l1.559-1.49 3.231 2.366c.593.33 1.01.156 1.17-.545l2.121-9.933c.189-.876-.316-1.219-.893-1.004L.652 4.832c-.85.33-.838.805-.144 1.02l3.187.99 7.404-4.63c.348-.23.665-.103.404.128L5.515 7.714z"/></symbol></svg>